{"title":"The.A.Team.2010.TS.XviD.FEEL-FREE","uid":5626445,"size":1087026651,"categoryP":"video","categoryS":"movies","magnet":"?xt=urn:btih:c9a3db768d9bc4aca8c0fb932ecd394812fb1a45&amp;dn=The.A.Team.2010.TS.XviD.FEEL-FREE&amp;tr=udp%3A%2F%2Ftracker.openbittorrent.com%3A80&amp;tr=udp%3A%2F%2Fopen.demonii.com%3A1337&amp;tr=udp%3A%2F%2Ftracker.coppersurfer.tk%3A6969&amp;tr=udp%3A%2F%2Fexodus.desync.com%3A6969","seeders":0,"leechers":0,"uploader":"hiest","files":9,"time":1276494958,"description":"Genre:Action/Adventure/Thriller \nLanguage:English\nIMDb:http://www.imdb.com/title/tt0429493/ \nSource Video:Relizlab.Thanks\nSource Audio:TA/imagine.Thanks\nEncoder: Tony2\n.................................................\nGeneral\nComplete name : The.A.Team.2010.TS.XviD.FEEL-FREE\nFormat : AVI\nFormat/Info : Audio Video Interleave\nFormat profile : OpenDML\nFile size : 1.01 GiB\n.................................................\nVideo\nID : 0\nFormat : MPEG-4 Visual\nCodec ID : DIV3\nCodec ID/Hint : DivX 3 Low\nDuration : 4h 32mn\nBit rate : 474 Kbps\nWidth : 704 pixels\nHeight : 304 pixels\nDisplay aspect ratio : 2.35:1\nFrame rate : 25.000 fps\nResolution : 24 bits\nBits/(Pixel*Frame) : 0.089\nStream size : 924 MiB (89%)\n..................................................\nAudio\nID : 1\nFormat : MPEG Audio\nFormat version : Version 1\nFormat profile : Layer 3\nFormat settings, Mode : Joint stereo / MS Stereo\nCodec ID : 55\nCodec ID/Hint : MP3\nDuration : 1h 47mn\nBit rate mode : Constant\nBit rate : 128 Kbps\nChannel(s) : 2 channels\nSampling rate : 44.1 KHz\nResolution : 16 bits\nStream size : 98.5 MiB (10%)\nAlignment : Aligned on interleaves\nInterleave, duration : 26 ms (0.65 video frame)\nInterleave, preload duration : 26 ms\nWriting library : LAME3.97\n.................................................\nPlot: \nA group of Iraq War veterans looks to clear their name with the U.S. military, who suspect the four men of committing a crime for which they were framed\n...................................................\nScreenshots\n &lt;a href=&quot;\nhttp://postimg.com/image/17000/16218.jpg&quot; rel=&quot;nofollow&quot; target=&quot;_NEW&quot;&gt;\nhttp://postimg.com/image/17000/16218.jpg&lt;/a&gt; &lt;a href=&quot;\nhttp://postimg.com/image/17000/16219.jpg&quot; rel=&quot;nofollow&quot; target=&quot;_NEW&quot;&gt;\nhttp://postimg.com/image/17000/16219.jpg&lt;/a&gt;\n\n......................................................\n......................................................","torrent":{"xt":"urn:btih:c9a3db768d9bc4aca8c0fb932ecd394812fb1a45","amp;dn":"The.A.Team.2010.TS.XviD.FEEL-FREE","amp;tr":["udp%3A%2F%2Ftracker.openbittorrent.com%3A80","udp%3A%2F%2Fopen.demonii.com%3A1337","udp%3A%2F%2Ftracker.coppersurfer.tk%3A6969","udp%3A%2F%2Fexodus.desync.com%3A6969"],"infoHash":"c9a3db768d9bc4aca8c0fb932ecd394812fb1a45","infoHashBuffer":{"type":"Buffer","data":[201,163,219,118,141,155,196,172,168,192,251,147,46,205,57,72,18,251,26,69]},"announce":[],"urlList":[]}}